<svg width="25" height="24" viewBox="0 0 25 24" fill="none" xmlns="http://www.w3.org/2000/svg">
<path d="M22.5766 12.0477C22.5766 11.1975 22.5048 10.577 22.3496 9.93359H12.2563V13.7712H18.1809C18.0615 14.7249 17.4165 16.1611 15.9831 17.1262L15.963 17.2547L19.1543 19.6328L19.3754 19.654C21.4059 17.8501 22.5766 15.1959 22.5766 12.0477Z" fill="#4285F4"/>
<path d="M12.2556 22.1591C15.1581 22.1591 17.5948 21.2398 19.3746 19.6543L15.9823 17.1264C15.0746 17.7354 13.8562 18.1605 12.2556 18.1605C9.41282 18.1605 7.00002 16.3566 6.13992 13.8633L6.01385 13.8736L2.6955 16.3439L2.6521 16.46C4.41989 19.838 8.05108 22.1591 12.2556 22.1591Z" fill="#34A853"/>
<path d="M6.1406 13.8634C5.91365 13.22 5.78231 12.5306 5.78231 11.8182C5.78231 11.1058 5.91365 10.4165 6.12866 9.77303L6.12265 9.63599L2.7627 7.12598L2.65277 7.17628C1.92417 8.57806 1.5061 10.1522 1.5061 11.8182C1.5061 13.4843 1.92417 15.0583 2.65277 16.4601L6.1406 13.8634Z" fill="#FBBC05"/>
<path d="M12.2557 5.47551C14.2743 5.47551 15.636 6.31427 16.4124 7.0152L19.4464 4.16569C17.5831 2.49966 15.1582 1.47705 12.2557 1.47705C8.05111 1.47705 4.4199 3.79799 2.6521 7.17599L6.128 9.77275C7.00005 7.27944 9.41286 5.47551 12.2557 5.47551Z" fill="#EB4335"/>
</svg>
